<svg xmlns="http://www.w3.org/2000/svg" width="200" height="200" fill="none" viewBox="0 0 200 200">
<!-- SVG created with Arrow, by QuiverAI (https://quiver.ai) -->
  <path d="m5.09 99.08c0.53 42.75 33.1 90.45 87.4 89.83 46.13-0.5 86.91-35.79 96.92-61.28 6.61-21.53-6.42-45.15-29.2-47.65-17.03-2.01-26.53 5.01-37.04 14.51-15.53 14.02-26.54 29.55-40.56 40.06-16.53 12.01-33.56 12.01-49.09 10.51 18.53 19.53 39.56 27.54 63.11 27.03 8.51-0.5 15.52-2 22.53-5.5-12.52 9.51-33.05 11.01-47.08 7.01-32.55-7.51-66.99-32.53-66.99-74.52z" fill="url(#paint0_linear_339_1793)"/>
  <path d="m100.1 5.11c-44.58 1-77.12 36.49-73.62 86.58-7-20.53 6.51-48.08 24.54-65.11 15.03-14.03 33.56-16.03 43.07-16.03 45.07-0.5 99.85 28.05 100.9 90.18-1.53-27.57-22.56-54.62-47.09-65.64-20.03-9.51-46.28-12.51-64.3-3 10.51-9.01 35.55-8.51 49.57-5.01 13.53 4.01 30.05 11.52 34.06 27.55-10.01-2.51-22.54-3.51-34.06 1-20.53 7.51-32.05 21.54-46.07 37.07-13.53 15.02-23.04 26.03-40.07 26.53-21.03 0.5-36.56-17.53-36.56-36.56 0-35.56 37.06-77.06 89.65-77.56z" fill="url(#paint1_linear_339_1793)"/>
  <path d="m100.1 195c35.56-0.51 61.1-23.53 74.62-39.56 14.02-18.03 21.03-40.05 10.02-58.08-9.01-14.03-20.53-16.53-28.54-16.03-13.03 1-21.04 6.01-34.56 19.03-13.03 13.02-21.54 25.53-37.56 36.55-13.03 9.51-24.04 10.51-34.05 10.01 8.01 7.01 14.01 15.52 37.05 18.02 13.02 1.5 19.53 1.5 29.54-6.51 8.52-6.51 21.54-15.02 28.55-29.04 5.51-10.51 6.51-22.52 1.51-35.54 10.52 0.5 19.53 11.51 19.53 28.54 0 18.03-16.03 41.55-35.56 56.58-9.51 8.01-25.04 15.02-30.55 16.03z" fill="url(#paint2_linear_339_1793)"/>
  <path d="m172.2 108.3c4.51 10.51 1.51 29.54-8 47.07-10.02 18.53-27.05 34.06-64.11 39.66 24.04-1.01 49.58-12.02 67.11-32.55 11.51-14.03 21.53-29.05 18.03-51.08-3.01-14.52-15.02-26.04-28.55-26.04-10.51 0-17.52 6.02-24.03 10.52 3-2 5-2.5 9.5-2.5 11.02-0.5 23.04 9.01 24.05 25.53 1 17.03-10.02 35.56-20.53 44.57 8.01-9.51 20.53-26.04 22.03-37.06 2-12.51-1-24.53-10.01-31.04 6.51 2 15.52 9.51 14.51 12.92z" fill="url(#paint3_linear_339_1793)"/>
  <path d="m14.99 79.17c-0.5-16.53 8.51-35.06 19.03-46.08 14.52-15.52 36.06-27.03 65.61-28.09-31.05 2.01-53.09 17.53-65.11 38.56-9.51 14.52-11.51 30.05-7.51 48.08-4.5-5.51-10.51-6.51-12.02-12.47z" fill="url(#paint4_linear_339_1793)"/>
  <path d="m110.2 18.57-0.73-0.54 0.54 1.1 0.74-0.54-0.55-0.02z" fill="#FEFFFE"/>
  <path d="m119.7 17.57-0.54-0.54 0.54 0.54z" fill="#FEFFFE"/>
  <path d="m84.61 17.07-0.54-0.54 0.54 0.54z" fill="#FEFFFE"/>
  <path d="m71.59 26.08-0.55-0.54 0.55 0.54z" fill="#FEFFFE"/>
  <path d="m79.59 32.09-0.54-0.55 0.54 0.55z" fill="#FEFFFE"/>
  <path d="m145.2 29.09-0.54-0.55 0.54 0.55z" fill="#FEFFFE"/>
  <path d="m147.2 44.61-0.55-0.54 0.55 0.54z" fill="#FEFFFE"/>
  <path d="m108.6 31.09-0.55-0.54 0.55 0.54z" fill="#FEFFFE"/>
  <path d="m48.05 38.6-0.55-0.55 0.55 0.55z" fill="#FEFFFE"/>
  <path d="m26.01 53.13-0.54-0.55 0.54 0.55z" fill="#FEFFFE"/>
  <path d="m22.51 68.65-0.54-0.54 0.54 0.54z" fill="#FEFFFE"/>
  <path d="m20.51 77.66-0.55-0.54 0.55 0.54z" fill="#FEFFFE"/>
  <path d="m21.51 93.19-0.55-0.55 0.55 0.55z" fill="#FEFFFE"/>
  <path d="m24.51 93.69-0.55-0.54 0.55 0.54z" fill="#FEFFFE"/>
  <path d="m38.03 116.7-0.55-0.55 0.55 0.55z" fill="#FEFFFE"/>
  <path d="m51.55 113.7-0.54-0.55 0.54 0.55z" fill="#FEFFFE"/>
  <path d="m61.07 175.4-0.55-0.55 0.55 0.55z" fill="#FEFFFE"/>
  <path d="m75.09 180.4-0.54-0.55 0.54 0.55z" fill="#FEFFFE"/>
  <path d="m94.12 180.9-0.54-0.55 0.54 0.55z" fill="#FEFFFE"/>
  <path d="m100.6 181.4-0.55-0.55 0.55 0.55z" fill="#FEFFFE"/>
  <path d="m129.2 172.9-0.55-0.55 0.55 0.55z" fill="#FEFFFE"/>
  <path d="m150.2 156.3-0.55-0.54 0.55 0.54z" fill="#FEFFFE"/>
  <path d="m170.7 158.3-0.55-0.55 0.55 0.55z" fill="#FEFFFE"/>
  <path d="m177.2 147.3-0.55-0.54 0.55 0.54z" fill="#FEFFFE"/>
  <path d="m184.8 127.3-0.54-0.54 0.54 0.54z" fill="#FEFFFE"/>
  <path d="m176.2 106.8-0.55-0.54 0.55 0.54z" fill="#FEFFFE"/>
  <path d="m171.2 98.75-0.55-0.54 0.55 0.54z" fill="#FEFFFE"/>
  <path d="m163.2 119.8-0.55-0.55 0.55 0.55z" fill="#FEFFFE"/>
  <path d="m150.7 111.3-0.54-0.55 0.54 0.55z" fill="#FEFFFE"/>
  <path d="m146.2 106.8-0.55-0.55 0.55 0.55z" fill="#FEFFFE"/>
  <path d="m139.2 106.3-0.54-0.55 0.54 0.55z" fill="#FEFFFE"/>
  <path d="m141.7 99.76-0.55-0.55 0.55 0.55z" fill="#FEFFFE"/>
  <path d="m159.2 129.8-0.55-0.55 0.55 0.55z" fill="#FEFFFE"/>
  <path d="m146.2 132.3-0.55-0.55 0.55 0.55z" fill="#FEFFFE"/>
  <path d="m145.2 132.8-0.55-0.55 0.55 0.55z" fill="#FEFFFE"/>
  <path d="m146.2 132.3-0.55-0.55 0.55 0.55z" fill="#FEFFFE"/>
  <path d="m145.7 132.3-0.55-0.54 0.55 0.54z" fill="#FEFFFE"/>
  <path d="m180.3 122.8-0.54-0.55 0.54 0.55z" fill="#FEFFFE"/>
  <path d="m91.62 167.8-0.55-0.54 0.55 0.54z" fill="#FEFFFE"/>
  <path d="m75.59 164.4-0.55-0.55 0.55 0.55z" fill="#FEFFFE"/>
  <path d="m58.56 155.3-0.54-0.55 0.54 0.55z" fill="#FEFFFE"/>
  <path d="m58.57 154.8-0.55-0.55 0.55 0.55z" fill="#FEFFFE"/>
  <path d="m58.57 154.8-0.55-0.55 0.55 0.55z" fill="#FEFFFE"/>
  <path d="m73.09 151.3-0.88-0.88 1.02-0.24 0.36 0.8-0.5 0.32z" fill="#FEFFFE"/>
  <path d="m78.59 158.8-0.54-0.54 0.54 0.54z" fill="#FEFFFE"/>
  <path d="m80.6 154.8-0.55-0.55 0.55 0.55z" fill="#FEFFFE"/>
  <path d="m104.1 158.8-1.18-0.23 0.55-0.66 0.96 0.28-0.33 0.61z" fill="#FEFFFE"/>
  <path d="m113.2 152.8-0.55-0.54 0.55 0.54z" fill="#FEFFFE"/>
  <path d="m101.6 150.8-0.54-0.55 0.54 0.55z" fill="#FEFFFE"/>
  <path d="m104.6 146.3-0.55-0.54 0.55 0.54z" fill="#FEFFFE"/>
  <path d="m126.2 133.3-0.55-0.54 0.55 0.54z" fill="#FEFFFE"/>
  <path d="m58.57 154.8-0.55-0.55 0.55 0.55z" fill="#FEFFFE"/>
  <path d="m57.06 153.8-0.54-0.55 0.54 0.55z" fill="#FEFFFE"/>
  <path d="m42.54 166.4-0.55-0.54 0.55 0.54z" fill="#FEFFFE"/>
  <path d="m102.6 48.12-1.55 0.16-0.36-0.56 0.8-0.28 1.11 0.68z" fill="#FEFFFE"/>
  <path d="m96.62 45.11-0.54-0.54 0.54 0.54z" fill="#FEFFFE"/>
  <path d="m117.2 43.61-0.54-0.55 0.54 0.55z" fill="#FEFFFE"/>
  <path d="m132.2 46.61-1.1-0.16 0.04-0.72 1.06 0.28v0.6z" fill="#FEFFFE"/>
  <path d="m62.07 57.63-0.55-0.54 1.1-0.5-0.07 0.92-0.48 0.12z" fill="#FEFFFE"/>
  <path d="m55.06 71.16-0.55-0.55 0.55 0.55z" fill="#FEFFFE"/>
  <path d="m53.55 76.16-0.54-0.54 0.54 0.54z" fill="#FEFFFE"/>
  <path d="m56.06 82.67-0.55-0.54 0.55 0.54z" fill="#FEFFFE"/>
  <path d="m54.05 97.2-0.54-0.55 1.06-0.28-0.52 0.83z" fill="#FEFFFE"/>
  <path d="m34.52 84.18-0.54-0.55 0.54 0.55z" fill="#FEFFFE"/>
  <path d="m44.54 99.21-0.55-0.55 0.55 0.55z" fill="#FEFFFE"/>
  <path d="m56.56 50.12 1.1-1.6 1.1 0.54-2.2 1.06z" fill="#FEFFFE"/>
  <path d="m46.05 52.62 0.72-1.36 0.73 0.36-1.45 1z" fill="#FEFFFE"/>
  <path d="m57.06 66.65-0.72 0.64-0.12-1 0.84 0.36z" fill="#FEFFFE"/>
  <path d="m33.02 139-0.01-16.2 6.75 0.49c6.02 0.45 7.35 4.01 7.35 8.76s-3.95 8.45-9.49 7.9l-8.28-1.11 3.68-16.04zm2.14-11.3-1.64 9 4.75 0.6c3.24 0.2 4.85-2.5 4.85-4.6 0-2.6-0.91-4.6-4.11-4.9l-3.85-0.1z" fill="#21123E"/>
  <path d="m67.07 132.2c0 5.81-4.85 7.96-9.26 7.96-4.55 0-8.76-2.9-8.76-7.9 0-5.56 4.66-8.42 9-8.42 5.01 0 9.02 3.51 9.02 8.36zm-14.02 0.06c0 3.3 2.66 4.75 4.76 4.75 2.46 0 5.26-1.45 5.26-4.9 0-3.01-2.55-4.91-4.96-4.91-2.35 0-5.06 1.95-5.06 5.06z" fill="#21123E"/>
  <path d="m73.78 135-8.76-13.87 6.81-4.51c3.5-2.35 6.36-0.9 7.96 1.76 1.25 2.2 1.2 4.46 0 6.21l6.32 2.45-3.5 2.5-4.92-2.35-3.06 2.1 2.66 4.01-3.51 1.7zm-2.7-13.22 3.25 4.91 2.61-1.8c1.55-1.05 1.35-2.81 0.55-4.06-0.9-1.45-2.41-2.06-3.71-1.15l-2.7 2.1z" fill="#21123E"/>
  <path d="m81.95 108.3 10.07 4.41-3.91-10.82 3.01-3.5 11.51 11.92-3 3-7.51-8.51 3 10.51-1.5 2-9.51-4 8.01 8.01-3.01 3-11.01-13.02 3.85-3z" fill="#21123E"/>
  <path d="m96.62 92.2 3.51-3.51 16.53 6.01-3.01 3.5-3.64-1.6-4.87 6.11 1.87 4.01-2.87 3-7.52-17.52zm5.66 7.21 4.3-4.61-6.25-2.3 1.95 6.91z" fill="#21123E"/>
  <path d="m111.6 79.17 8.51 5.01-2.75-12.27 3.26-2.75 11.51 12.01-3.5 2.51-7.76-8.77 2.8 10.17-2.2 2-9.12-4.65 7.61 8.51-2.9 2.71-10.47-12.48 5.01-2z" fill="#21123E"/>
  <path d="m132.7 63.14 7.01 9.02 2.5-12.07 4.51-1 5.01 15.52-3.5 1.51-3.5-10.52-2.01 10.02-3.01 1-6.51-8.01 4.01 10.51-4.01 1.5-5-15.53 4.5-1.95z" fill="#21123E"/>
  <path d="m155.2 59.14 4.01 0.5-2 9.51c-0.61 3.01 1 4.46 3 4.46 2.46 0 4.21-1.3 4.71-4.46l1.8-8.51 4.01 1.1-2.01 9.01c-1 5.01-3.85 6.31-8.46 5.76-4.06-0.5-6.96-3.15-6.06-7.91l1-9.46z" fill="url(#paint5_linear_339_1793)"/>
  <path d="m118.2 30.59c-9.56-0.5-19.08-2.51-30.6 2-11.52 4.5-19.53 8.01-29.04 18.53-6.51 6.51-11.52 12.52-13.52 24.54-2.51 11.02-1.51 18.03 2 29.05-8.01-3-13.02-14.52-13.02-25.54 0-14.02 6.01-24.04 12.02-32.05 9.51-13.02 24.03-28.05 52.58-32.05 13.52-1.5 33.55 2.5 45.07 11.51-9.51-0.5-16.02 2.5-25.49 4.01z" fill="url(#paint6_linear_339_1793)"/>
  <path d="m119.7 31.09c9.51 1 27.04 6.01 45.57 23.04-9.01-1.01-17.52-1.51-26.03-0.5-6.01-7.52-14.53-10.02-20.04-10.52-7.51-1-12.02-5.01-22.03-3.01-9.52 2.01-19.53 6.51-27.05 15.53 6.01-9.52 17.03-16.53 26.54-19.53 4.01-1.01 9.52 0.5 14.03 0 4.5-0.5 7-2.01 9.01-5.01z" fill="url(#paint7_linear_339_1793)"/>
  <path d="m46.05 56.63c-3.01 6.51-5.01 14.03-6.52 21.54-1.5 7.51-0.5 10.51 2.01 17.52 1 2.51 3 6.52 5.01 8.52-3.51-9.01-4.51-15.02-2.51-25.04 1-5.01 3.51-13.02 6.51-16.53 5.51-6.51 7.01-7.01 9.52-10.52-2.51 2.01-3.51 3.01-5.51 4.01-2.51 1.5-4.01 1-5.51 6.01-1-3-0.5-4.51 1-8.01-2 0-3 0.5-4 2.5z" fill="url(#paint8_linear_339_1793)"/>
  <path d="m66.58 33.09c-3.01 1.5-12.02 10.52-15.53 17.03 1.5 0 1.5 0 2.51-1 3-2 9.51-9.02 14.52-15.03 0.5-1 0.5-2-1.5-1z" fill="url(#paint9_linear_339_1793)"/>
  <path d="m119.2 34.59c-2.01 0.5-2.01 2.51 0.5 3.51 4.01 1 10.52 1.5 17.03 5.01 4 2.5 6.01 3.5 10.02 4.01-4.02-4.51-12.03-10.02-20.54-13.03-2.5-1-4.5-0.5-7.01 0.5z" fill="url(#paint10_linear_339_1793)"/>
  <path d="m154.2 97.36c6.51 5 10.52 12.51 9.52 24.53-1.51 15.02-9.02 26.04-17.03 35.55-11.52 13.52-22.54 19.53-41.57 19.53 12.02-4 20.03-9.51 27.54-19.02 7.01-9.02 14.53-16.53 19.03-28.55 4.01-11.02 4.51-21.53-1.5-34.05 1.5 0 2.5 0.5 4.01 2.01z" fill="url(#paint11_linear_339_1793)"/>
  <defs>
    <linearGradient id="paint0_linear_339_1793" x1="5.088" x2="189.3" y1="136.7" y2="136.7" gradientUnits="userSpaceOnUse">
      <stop stop-color="#21123E" offset="0"/>
      <stop stop-color="#2A1A51" offset=".2031"/>
      <stop stop-color="#392563" offset=".3438"/>
      <stop stop-color="#562B68" offset=".4896"/>
      <stop stop-color="#893229" offset=".7239"/>
      <stop stop-color="#B33B0E" offset=".8958"/>
      <stop stop-color="#C64103" offset="1"/>
    </linearGradient>
    <linearGradient id="paint1_linear_339_1793" x1="10.48" x2="195" y1="57.64" y2="57.64" gradientUnits="userSpaceOnUse">
      <stop stop-color="#21123E" offset="0"/>
      <stop stop-color="#2A1A51" offset=".2031"/>
      <stop stop-color="#392563" offset=".3438"/>
      <stop stop-color="#562B68" offset=".4896"/>
      <stop stop-color="#893229" offset=".7239"/>
      <stop stop-color="#B33B0E" offset=".8958"/>
      <stop stop-color="#C64103" offset="1"/>
    </linearGradient>
    <linearGradient id="paint2_linear_339_1793" x1="50.05" x2="188.7" y1="138.4" y2="138.4" gradientUnits="userSpaceOnUse">
      <stop stop-color="#21123E" offset="0"/>
      <stop stop-color="#2A1A51" offset=".2031"/>
      <stop stop-color="#392563" offset=".3438"/>
      <stop stop-color="#562B68" offset=".4896"/>
      <stop stop-color="#893229" offset=".7239"/>
      <stop stop-color="#B33B0E" offset=".8958"/>
      <stop stop-color="#C64103" offset="1"/>
    </linearGradient>
    <linearGradient id="paint3_linear_339_1793" x1="168.1" x2="154.1" y1="91.99" y2="170.5" gradientUnits="userSpaceOnUse">
      <stop stop-color="#21123E" offset="0"/>
      <stop stop-color="#2A1A51" offset=".2031"/>
      <stop stop-color="#392563" offset=".3438"/>
      <stop stop-color="#562B68" offset=".4896"/>
      <stop stop-color="#893229" offset=".7239"/>
      <stop stop-color="#B33B0E" offset=".8958"/>
      <stop stop-color="#C64103" offset="1"/>
    </linearGradient>
    <linearGradient id="paint4_linear_339_1793" x1="14.94" x2="99.63" y1="48.32" y2="48.32" gradientUnits="userSpaceOnUse">
      <stop stop-color="#21123E" offset="0"/>
      <stop stop-color="#312757" offset="1"/>
    </linearGradient>
    <linearGradient id="paint5_linear_339_1793" x1="151.1" x2="170.7" y1="67.81" y2="67.81" gradientUnits="userSpaceOnUse">
      <stop stop-color="#842642" offset="0"/>
      <stop stop-color="#B6491E" offset="1"/>
    </linearGradient>
    <linearGradient id="paint6_linear_339_1793" x1="33.98" x2="143.7" y1="59.9" y2="59.9" gradientUnits="userSpaceOnUse">
      <stop stop-color="#21123E" offset="0"/>
      <stop stop-color="#2A1A51" offset=".2031"/>
      <stop stop-color="#392563" offset=".3438"/>
      <stop stop-color="#562B68" offset=".4896"/>
      <stop stop-color="#2062A1" offset=".7239"/>
      <stop stop-color="#1684B5" offset=".8958"/>
      <stop stop-color="#0FA6C6" offset="1"/>
    </linearGradient>
    <linearGradient id="paint7_linear_339_1793" x1="69.86" x2="165.2" y1="42.86" y2="42.86" gradientUnits="userSpaceOnUse">
      <stop stop-color="#2062A1" offset="0"/>
      <stop stop-color="#395686" offset=".1042"/>
      <stop stop-color="#5F4562" offset=".2708"/>
      <stop stop-color="#7D3948" offset=".4208"/>
      <stop stop-color="#903139" offset=".5518"/>
      <stop stop-color="#992E34" offset=".651"/>
    </linearGradient>
    <linearGradient id="paint8_linear_339_1793" x1="38.67" x2="60.07" y1="79.15" y2="79.15" gradientUnits="userSpaceOnUse">
      <stop stop-color="#F9B589" offset="0"/>
      <stop stop-color="#F16322" offset=".5208"/>
      <stop stop-color="#992E34" offset="1"/>
    </linearGradient>
    <linearGradient id="paint9_linear_339_1793" x1="50.5" x2="68.36" y1="41.05" y2="41.05" gradientUnits="userSpaceOnUse">
      <stop stop-color="#992E34" offset="0"/>
      <stop stop-color="#B1352A" offset=".4792"/>
      <stop stop-color="#D43E1D" offset="1"/>
    </linearGradient>
    <linearGradient id="paint10_linear_339_1793" x1="116.4" x2="146.7" y1="39.97" y2="39.97" gradientUnits="userSpaceOnUse">
      <stop stop-color="#D43E1D" offset="0"/>
      <stop stop-color="#D95427" offset=".5208"/>
      <stop stop-color="#E16C31" offset="1"/>
    </linearGradient>
    <linearGradient id="paint11_linear_339_1793" x1="158.5" x2="140.7" y1="98.02" y2="170.8" gradientUnits="userSpaceOnUse">
      <stop stop-color="#973045" offset="0"/>
      <stop stop-color="#D45727" offset=".2031"/>
      <stop stop-color="#F69220" offset=".3438"/>
      <stop stop-color="#F9B589" offset=".4896"/>
      <stop stop-color="#D45527" offset=".6615"/>
      <stop stop-color="#B1352A" offset=".8333"/>
      <stop stop-color="#8A2934" offset="1"/>
    </linearGradient>
  </defs>
</svg>